<svg xmlns="http://www.w3.org/2000/svg" viewBox="0 0 153.6 51.45"><defs><style>.cls-1{fill:#7f5b2c;}.cls-2{fill:#e99c1e;}</style></defs><title>Asset 2</title><g id="Layer_2" data-name="Layer 2"><g id="Calque_1" data-name="Calque 1"><path class="cls-1" d="M52,14.29V37c0,2.48.53,4.2,1.58,5.13s2.87,1.4,5.41,1.4h7.77c.31,0,3.72,7.19,3.72,7.19-.66,0-4.2.06-4.92.06H60q-10,0-13.64-7a14.91,14.91,0,0,1-1.65-7V14.58c0-5.09,1.29-8.74,3.88-11Q52.26.5,60,.5h5.52Q73.3.5,77,3.59c2.57,2.25,3.87,5.9,3.87,11v6.54L73.59,26.9V14.29q0-3.73-1.52-5.13c-1-.94-2.79-1.4-5.34-1.4H59c-2.54,0-4.35.46-5.41,1.4S52,11.8,52,14.29Z"/><path class="cls-2" d="M109.52,14.58v22.1q0,7.6-3.88,11c-2.44,2.07-6.25,3.09-11.41,3.09H88.71q-10,0-13.64-7a14.81,14.81,0,0,1-1.45-7l0-8.1,7.24-5.77V36.23s-.24,4.59,1.42,5.87c1.12.87,2.85,1.4,5.41,1.4h7.77c2.5,0,4.26-.45,5.29-1.37s1.55-2.58,1.55-5V14.29q0-3.73-1.51-5.13c-1-.94-2.79-1.4-5.33-1.4h-8L84.06.5H94.23q7.74,0,11.41,3.09C108.23,5.84,109.52,9.49,109.52,14.58Z"/><path class="cls-2" d="M146.35.5V42.26L131.07,5.12Q129.42,1,126.57.29A10.77,10.77,0,0,0,124.28,0q-6,0-6,7.48V50.75h7.25V10.12l15.15,36.25q2.37,5.61,7.18,5A6,6,0,0,0,152,49.21a6.84,6.84,0,0,0,1.58-4.49v-37A7.26,7.26,0,0,0,146.35.5Z"/><path class="cls-1" d="M20.53,29.25h8.18v9.08a2.78,2.78,0,0,1-.07.79Q28,43.5,23.33,43.5H11.27a4.63,4.63,0,0,1-3.88-4.23c-.09-.58-.14-.94-.14-1.08v-25a5.85,5.85,0,0,1,1-3.84,5.66,5.66,0,0,1,3.66-1.55,2.14,2.14,0,0,0,.36-.07H32.66A7.25,7.25,0,0,0,25.41.5h-12Q0,.5,0,13.71v24a14.36,14.36,0,0,0,1.54,7.11,12.3,12.3,0,0,0,5.35,4.66,14.27,14.27,0,0,0,6.39,1.22h10a14.22,14.22,0,0,0,7-1.51A11.39,11.39,0,0,0,34.82,44,15.11,15.11,0,0,0,36,37.54V22.11L20.53,22Z"/></g></g></svg>