<svg xmlns="http://www.w3.org/2000/svg" viewBox="0 0 566.82 744.56"><defs><style>.cls-1{fill:#211f1f;}.cls-2{fill:#222020;}</style></defs><title>Fichier 12</title><g id="Calque_2" data-name="Calque 2"><g id="Calque_1-2" data-name="Calque 1"><polygon class="cls-1" points="24.55 742.72 25.71 0 566.82 1.83 565.66 744.56 24.55 742.72"/><path class="cls-2" d="M32.19,128.05l73.52.25c3.87,0,7,20.06,6.94,44.77l-.53,338c0,24.71-3.21,44.73-7.08,44.72l-73.52-.25c-3.87,0-7-20.06-6.94-44.77l.08-51.6c0-16-1.29-30.76-3.44-38.76L0,341.67,21.46,263.1c2.18-8,3.54-22.75,3.57-38.74l.08-51.59C25.15,148.06,28.32,128,32.19,128.05Z"/></g></g></svg>