<svg xmlns="http://www.w3.org/2000/svg" viewBox="0 0 212.05 139.2"><defs><style>.cls-1{fill:#878787;}.cls-2,.cls-4,.cls-5{font-size:7.46px;font-family:FuturaSBOP-Bold, FuturaSBOP Bold;font-weight:700;}.cls-2{fill:#666;}.cls-3,.cls-5,.cls-6{fill:#eca000;}.cls-4{fill:#ededed;}.cls-6{font-size:4.35px;}.cls-10,.cls-12,.cls-6{font-family:FuturaSBOP-Book, FuturaSBOP Book;}.cls-7{letter-spacing:0.01em;}.cls-8{letter-spacing:-0.02em;}.cls-9{fill:#575756;}.cls-10,.cls-12{font-size:5.59px;fill:#fff;}.cls-10{letter-spacing:-0.01em;}.cls-11{letter-spacing:0em;}.cls-13{letter-spacing:0.01em;}.cls-14{letter-spacing:-0.01em;}.cls-15{letter-spacing:-0.03em;}.cls-16{letter-spacing:-0.01em;}.cls-17{letter-spacing:0em;}</style></defs><title>Fichier 16</title><g id="Calque_2" data-name="Calque 2"><g id="Calque_1-2" data-name="Calque 1"><path class="cls-1" d="M212,44.23H182V20.33h30Zm-29.85-.16h29.69V20.48H182.2Z"/><path class="cls-1" d="M212,68H182V44.07h30Zm-29.85-.16h29.69V44.23H182.2Z"/><path class="cls-1" d="M212,91.71H182V67.82h30Zm-29.85-.16h29.69V68H182.2Z"/><path class="cls-1" d="M212,115.46H182V91.56h30Zm-29.85-.16h29.69V91.71H182.2Z"/><path class="cls-1" d="M212,139.2H182V115.3h30ZM182.2,139h29.69V115.46H182.2Z"/><text class="cls-2" transform="translate(189.02 30.14)">5</text><text class="cls-2" transform="translate(189.02 53.89)">12</text><text class="cls-2" transform="translate(189.02 77.63)">19</text><text class="cls-2" transform="translate(189.02 101.37)">26</text><path class="cls-1" d="M30,44.23H0V20.33H30ZM.16,44.07H29.85V20.48H.16Z"/><path class="cls-1" d="M60.34,44.23h-30V20.33h30ZM30.5,44.07H60.19V20.48H30.5Z"/><path class="cls-1" d="M90.69,44.23h-30V20.33h30Zm-29.85-.16H90.53V20.48H60.84Z"/><path class="cls-1" d="M121,44.23H91V20.33h30Zm-29.85-.16h29.69V20.48H91.18Z"/><path class="cls-1" d="M151.37,44.23h-30V20.33h30Zm-29.85-.16h29.69V20.48H121.52Z"/><path class="cls-1" d="M181.71,44.23h-30V20.33h30Zm-29.85-.16h29.69V20.48H151.86Z"/><path class="cls-1" d="M30,68H0V44.07H30ZM.16,67.82H29.85V44.23H.16Z"/><path class="cls-1" d="M60.34,68h-30V44.07h30ZM30.5,67.82H60.19V44.23H30.5Z"/><path class="cls-1" d="M90.69,68h-30V44.07h30Zm-29.85-.16H90.53V44.23H60.84Z"/><path class="cls-1" d="M121,68H91V44.07h30Zm-29.85-.16h29.69V44.23H91.18Z"/><path class="cls-1" d="M151.37,68h-30V44.07h30Zm-29.85-.16h29.69V44.23H121.52Z"/><path class="cls-1" d="M181.71,68h-30V44.07h30Zm-29.85-.16h29.69V44.23H151.86Z"/><path class="cls-1" d="M30,91.71H0V67.82H30ZM.16,91.56H29.85V68H.16Z"/><path class="cls-1" d="M60.34,91.71h-30V67.82h30ZM30.5,91.56H60.19V68H30.5Z"/><path class="cls-1" d="M90.69,91.71h-30V67.82h30Zm-29.85-.16H90.53V68H60.84Z"/><path class="cls-1" d="M121,91.71H91V67.82h30Zm-29.85-.16h29.69V68H91.18Z"/><path class="cls-1" d="M151.37,91.71h-30V67.82h30Zm-29.85-.16h29.69V68H121.52Z"/><path class="cls-1" d="M181.71,91.71h-30V67.82h30Zm-29.85-.16h29.69V68H151.86Z"/><path class="cls-1" d="M30,115.46H0V91.56H30ZM.16,115.3H29.85V91.71H.16Z"/><path class="cls-1" d="M60.34,115.46h-30V91.56h30ZM30.5,115.3H60.19V91.71H30.5Z"/><path class="cls-1" d="M90.69,115.46h-30V91.56h30Zm-29.85-.16H90.53V91.71H60.84Z"/><path class="cls-1" d="M121,115.46H91V91.56h30Zm-29.85-.16h29.69V91.71H91.18Z"/><path class="cls-1" d="M151.37,115.46h-30V91.56h30Zm-29.85-.16h29.69V91.71H121.52Z"/><path class="cls-1" d="M181.71,115.46h-30V91.56h30Zm-29.85-.16h29.69V91.71H151.86Z"/><path class="cls-1" d="M30,139.2H0V115.3H30ZM.16,139H29.85V115.46H.16Z"/><path class="cls-1" d="M60.34,139.2h-30V115.3h30ZM30.5,139H60.19V115.46H30.5Z"/><path class="cls-1" d="M90.69,139.2h-30V115.3h30ZM60.84,139H90.53V115.46H60.84Z"/><path class="cls-1" d="M121,139.2H91V115.3h30ZM91.18,139h29.69V115.46H91.18Z"/><path class="cls-3" d="M151.37,139.2h-30V115.3h30ZM121.52,139h29.69V115.46H121.52Z"/><path class="cls-1" d="M181.71,139.2h-30V115.3h30ZM151.86,139h29.69V115.46H151.86Z"/><text class="cls-2" transform="translate(67.81 30.14)">1</text><text class="cls-2" transform="translate(98.15 30.14)">2</text><text class="cls-2" transform="translate(128.49 30.14)">3</text><text class="cls-2" transform="translate(158.83 30.14)">4</text><text class="cls-2" transform="translate(67.81 53.89)">8</text><text class="cls-2" transform="translate(7.12 53.89)">6</text><text class="cls-2" transform="translate(37.47 53.89)">7</text><text class="cls-4" transform="translate(7.12 30.14)">30</text><text class="cls-4" transform="translate(37.47 30.14)">31</text><text class="cls-2" transform="translate(98.15 53.89)">9</text><text class="cls-2" transform="translate(128.49 53.89)">10</text><text class="cls-2" transform="translate(158.83 53.89)">11</text><text class="cls-2" transform="translate(67.81 77.63)">15</text><text class="cls-2" transform="translate(7.12 77.63)">13</text><text class="cls-2" transform="translate(37.47 77.63)">14</text><text class="cls-2" transform="translate(98.15 77.63)">16</text><text class="cls-2" transform="translate(128.49 77.63)">17</text><text class="cls-2" transform="translate(158.83 77.63)">18</text><text class="cls-2" transform="translate(67.81 101.37)">22</text><text class="cls-2" transform="translate(7.12 101.37)">20</text><text class="cls-2" transform="translate(37.47 101.37)">21</text><text class="cls-2" transform="translate(98.15 101.37)">23</text><text class="cls-2" transform="translate(128.49 101.37)">24</text><text class="cls-2" transform="translate(158.83 101.37)">25</text><text class="cls-2" transform="translate(67.81 125.12)">29</text><text class="cls-2" transform="translate(7.12 125.12)">27</text><text class="cls-2" transform="translate(37.47 125.12)">28</text><text class="cls-2" transform="translate(98.15 125.12)">30</text><text class="cls-5" transform="translate(128.49 125.12)">31</text><text class="cls-4" transform="translate(158.83 125.12)">1</text><text class="cls-4" transform="translate(189.02 125.12)">2</text><text class="cls-6" transform="translate(62.95 42)">Jour de <tspan class="cls-7" x="14.3" y="0">l</tspan><tspan class="cls-8" x="15.35" y="0">’</tspan><tspan x="16.17" y="0">an</tspan></text><path class="cls-9" d="M8.7,0H29.93a0,0,0,0,1,0,0V17.19a0,0,0,0,1,0,0H.08a0,0,0,0,1,0,0V8.62A8.62,8.62,0,0,1,8.7,0Z"/><rect class="cls-9" x="30.42" width="29.85" height="17.19"/><rect class="cls-9" x="60.76" width="29.85" height="17.19"/><rect class="cls-9" x="91.1" width="29.85" height="17.19"/><rect class="cls-9" x="121.44" width="29.85" height="17.19"/><rect class="cls-9" x="151.78" width="29.85" height="17.19"/><path class="cls-9" d="M182.12,0h21.23A8.62,8.62,0,0,1,212,8.62v8.57a0,0,0,0,1,0,0H182.12a0,0,0,0,1,0,0V0A0,0,0,0,1,182.12,0Z"/><text class="cls-10" transform="translate(8.98 10.23)">L<tspan class="cls-11" x="2.56" y="0">undi</tspan></text><text class="cls-12" transform="translate(38.48 10.23)"><tspan class="cls-13">M</tspan><tspan x="4.53" y="0">a</tspan><tspan class="cls-14" x="7.23" y="0">r</tspan><tspan class="cls-11" x="9" y="0">di</tspan></text><text class="cls-12" transform="translate(65.56 10.23)"><tspan class="cls-13">M</tspan><tspan class="cls-11" x="4.53" y="0">e</tspan><tspan class="cls-14" x="7.33" y="0">r</tspan><tspan x="9.11" y="0">c</tspan><tspan class="cls-14" x="11.61" y="0">r</tspan><tspan class="cls-11" x="13.39" y="0">edi</tspan></text><text class="cls-12" transform="translate(100.18 10.23)">Jeudi</text><text class="cls-12" transform="translate(126.35 10.23)"><tspan class="cls-15">V</tspan><tspan x="2.94" y="0">end</tspan><tspan class="cls-16" x="12" y="0">r</tspan><tspan x="13.77" y="0">edi</tspan></text><text class="cls-12" transform="translate(158.28 10.23)"><tspan class="cls-17">S</tspan><tspan x="2.77" y="0">amedi</tspan></text><text class="cls-12" transform="translate(185.76 10.23)">Dimanche</text></g></g></svg>