<svg xmlns="http://www.w3.org/2000/svg" viewBox="0 0 153.6 51.45"><defs><style>.cls-1{fill:#855a21;}.cls-2{fill:#eca000;}</style></defs><title>Fichier 1</title><g id="Calque_2" data-name="Calque 2"><g id="Calque_1-2" data-name="Calque 1"><path class="cls-1" d="M52,14.29V37c0,2.48.53,4.2,1.58,5.13s2.86,1.4,5.41,1.4h7.77c.31,0,3.72,7.19,3.72,7.19-.67,0-4.2.05-4.92.05H60q-10,0-13.64-7a14.92,14.92,0,0,1-1.65-7V14.58q0-7.63,3.88-11Q52.26.5,60,.5h5.52Q73.3.5,77,3.59q3.86,3.37,3.87,11v6.55L73.59,26.9V14.29c0-2.49-.51-4.2-1.52-5.13s-2.79-1.4-5.33-1.4H59q-3.81,0-5.41,1.4C52.5,10.09,52,11.8,52,14.29Z"/><path class="cls-2" d="M109.52,14.58v22.1q0,7.61-3.88,11c-2.44,2.07-6.25,3.09-11.41,3.09H88.71q-10,0-13.64-7a14.82,14.82,0,0,1-1.45-7l0-8.1,7.24-5.77V36.23s-.24,4.59,1.42,5.87a8.7,8.7,0,0,0,5.41,1.4h7.77c2.5,0,4.26-.46,5.29-1.37s1.55-2.59,1.55-5V14.29c0-2.49-.5-4.2-1.51-5.13S98,7.76,95.43,7.76h-8L84.06.5H94.23q7.75,0,11.41,3.09Q109.52,7,109.52,14.58Z"/><path class="cls-2" d="M146.35.5V42.26L131.07,5.12Q129.42,1,126.57.29A10.43,10.43,0,0,0,124.28,0q-6,0-6,7.48V50.75h7.25V10.12l15.15,36.25q2.37,5.6,7.18,5A6.07,6.07,0,0,0,152,49.21a6.81,6.81,0,0,0,1.58-4.49v-37A7.25,7.25,0,0,0,146.35.5Z"/><path class="cls-1" d="M20.53,29.25h8.18v9.08a2.9,2.9,0,0,1-.07.79Q28,43.5,23.33,43.5H11.27a4.62,4.62,0,0,1-3.88-4.24,9.31,9.31,0,0,1-.14-1.08v-25a5.9,5.9,0,0,1,1-3.84,5.69,5.69,0,0,1,3.66-1.54l.36-.07H32.66A7.25,7.25,0,0,0,25.41.5h-12Q0,.5,0,13.71v24a14.33,14.33,0,0,0,1.54,7.11,12.27,12.27,0,0,0,5.35,4.67,14.32,14.32,0,0,0,6.39,1.22H23.33a14.25,14.25,0,0,0,7-1.51A11.37,11.37,0,0,0,34.82,44,15,15,0,0,0,36,37.54V22.11L20.53,22Z"/></g></g></svg>